<svg version="1.2" xmlns="http://www.w3.org/2000/svg" viewBox="0 0 66 64" width="66" height="64">
	<title>adobe-photoshop-icon</title>
	<style>
		.s0 { fill: #001e36 } 
		.s1 { fill: #31a8ff } 
	</style>
	<path fill-rule="evenodd" class="s0" d="m11.7 0h42.6c6.4 0 11.7 5.2 11.7 11.6v40.8c0 6.4-5.3 11.6-11.7 11.6h-42.6c-6.5 0-11.7-5.2-11.7-11.6v-40.8c0-6.4 5.2-11.6 11.7-11.6z"/>
	<path class="s1" d="m14.9 44.9v-28.2q0-0.3 0.2-0.3c0.5 0 0.9 0 1.6 0q0.9 0 2.1 0l2.4-0.1q1.2 0 2.5 0 3.3 0 5.6 0.8 0.5 0.2 1 0.4 0.5 0.3 1 0.6 0.5 0.2 0.9 0.6 0.4 0.3 0.8 0.7 0.4 0.3 0.7 0.7 0.2 0.3 0.5 0.7 0.3 0.4 0.5 0.8 0.2 0.5 0.3 0.9 0.2 0.4 0.3 0.9 0.1 0.4 0.2 0.8 0.1 0.5 0.1 0.9 0.1 0.5 0.1 0.9 0 3.6-1.7 5.8-0.4 0.6-0.9 1.1-0.5 0.5-1 0.9-0.6 0.5-1.2 0.8-0.6 0.3-1.3 0.6c-1.9 0.7-3.9 0.9-6.2 0.9q-1 0-1.4 0-0.4 0-1.2 0v8.7q0 0.1 0 0.2 0 0 0 0.1-0.1 0.1-0.1 0.1-0.1 0-0.2 0 0 0 0 0 0 0 0 0 0 0 0 0-0.1 0-0.1 0h-5.2q-0.3 0-0.3-0.3zm5.9-23.2v9.2q0.6 0 1.1 0h1.5q0.4 0 0.8 0 0.4 0 0.8-0.1 0.4-0.1 0.7-0.1 0.4-0.1 0.8-0.3 0.3-0.1 0.7-0.2 0.3-0.1 0.6-0.3 0.2-0.2 0.5-0.4 0.3-0.3 0.5-0.5 0.8-1 0.8-2.8 0-0.4 0-0.7 0-0.3-0.1-0.6-0.1-0.3-0.2-0.6-0.1-0.3-0.3-0.6-0.2-0.2-0.4-0.5-0.2-0.2-0.4-0.4-0.3-0.2-0.6-0.3-0.2-0.2-0.5-0.3-0.4-0.2-0.8-0.3-0.4-0.1-0.8-0.2-0.4 0-0.8-0.1-0.4 0-0.9 0-1 0-1.8 0.1-0.9 0-1.2 0z"/>
	<path class="s1" d="m52.8 29.2q-0.3-0.1-0.7-0.3-0.3-0.1-0.6-0.2-0.3-0.1-0.7-0.2-0.3-0.1-0.7-0.2-0.3-0.1-0.7-0.2-0.4 0-0.8-0.1-0.4 0-0.8 0-0.4-0.1-0.7-0.1-0.3 0-0.5 0.1-0.2 0-0.4 0-0.2 0-0.4 0.1-0.2 0-0.4 0-0.1 0.1-0.2 0.1-0.2 0.1-0.3 0.1-0.1 0.1-0.2 0.2-0.1 0.1-0.2 0.2 0 0.1-0.1 0.2 0 0.1 0 0.2-0.1 0.1-0.1 0.1 0 0.1 0 0.2 0 0.1 0 0.2 0.1 0.1 0.1 0.2 0 0.1 0.1 0.2 0 0.1 0.1 0.2 0.1 0.1 0.2 0.2 0.1 0.1 0.2 0.2 0.1 0.1 0.3 0.1 0.1 0.1 0.2 0.2 0.2 0.1 0.5 0.2 0.2 0.1 0.5 0.3 0.2 0.1 0.5 0.2 0.2 0.1 0.5 0.2 0.5 0.2 1.1 0.4 0.5 0.2 1 0.4 0.6 0.3 1.1 0.6 0.5 0.3 1 0.6 0.3 0.2 0.6 0.4 0.3 0.3 0.6 0.6 0.3 0.3 0.5 0.6 0.3 0.3 0.5 0.6 0.1 0.4 0.2 0.7 0.2 0.4 0.2 0.7 0.1 0.4 0.2 0.7 0 0.4 0 0.8 0 0.4-0.1 0.9 0 0.5-0.2 1-0.1 0.4-0.3 0.9-0.2 0.4-0.5 0.8-0.3 0.4-0.6 0.8-0.3 0.3-0.7 0.6-0.4 0.4-0.8 0.6-0.5 0.3-0.9 0.4-2.1 0.9-5 0.9-0.5 0-1 0-0.4 0-0.9-0.1-0.5 0-0.9-0.1-0.5 0-1-0.1-0.3-0.1-0.7-0.2-0.3-0.1-0.7-0.2-0.3-0.1-0.7-0.2-0.3-0.2-0.7-0.3 0 0-0.1-0.1-0.1-0.1-0.1-0.1 0-0.1-0.1-0.2 0-0.1 0-0.1v-4.8q0 0 0-0.1 0 0 0 0 0.1-0.1 0.1-0.1 0 0 0 0 0.1 0 0.1-0.1 0 0 0.1 0 0 0 0 0.1 0 0 0.1 0 0.4 0.2 0.8 0.4 0.4 0.2 0.8 0.4 0.5 0.2 0.9 0.3 0.4 0.1 0.9 0.2 0.4 0.1 0.8 0.2 0.4 0.1 0.8 0.1 0.4 0.1 0.8 0.1 0.4 0 0.8 0 1.6 0 2.3-0.3 0.2-0.1 0.3-0.2 0.1-0.2 0.2-0.3 0.1-0.2 0.2-0.3 0-0.2 0-0.4 0-0.6-0.6-1.1-0.7-0.5-2.7-1.3-0.6-0.1-1.1-0.4-0.5-0.2-1-0.4-0.5-0.3-0.9-0.6-0.5-0.2-1-0.5-0.3-0.3-0.6-0.5-0.3-0.3-0.5-0.6-0.3-0.3-0.5-0.6-0.3-0.3-0.4-0.7-0.2-0.3-0.3-0.6-0.1-0.4-0.2-0.7-0.1-0.4-0.2-0.7 0-0.4 0-0.7 0-0.5 0.1-0.9 0-0.4 0.1-0.9 0.2-0.4 0.3-0.8 0.2-0.4 0.4-0.8 0.3-0.4 0.6-0.7 0.3-0.4 0.7-0.7 0.4-0.3 0.8-0.6 0.4-0.3 0.8-0.5 2-0.9 4.9-0.9 0.4 0 0.8 0 0.5 0 0.9 0 0.4 0 0.9 0.1 0.4 0 0.8 0.1 0.3 0 0.6 0.1 0.3 0.1 0.6 0.1 0.3 0.1 0.6 0.2 0.3 0.1 0.6 0.2 0 0.1 0.1 0.1 0 0 0 0 0.1 0.1 0.1 0.1 0 0 0 0.1 0 0 0.1 0.1 0 0 0 0 0 0.1 0 0.1 0 0.1 0 0.1v4.5q0 0 0 0 0 0.1 0 0.1-0.1 0-0.1 0.1 0 0 0 0-0.1 0.1-0.1 0.1-0.1 0-0.1 0-0.1 0-0.1 0-0.1-0.1-0.1-0.1z"/>
</svg>