<svg version="1.2" xmlns="http://www.w3.org/2000/svg" viewBox="0 0 64 64" width="64" height="64">
	<title>icons8-illustrator</title>
	<style>
		.s0 { fill: #ff5722 } 
		.s1 { fill: #1c0802 } 
	</style>
	<path class="s0" d="m0.1 7.2c0-3.9 3.2-7.1 7.1-7.1h49.6c3.9 0 7.1 3.2 7.1 7.1v49.6c0 3.9-3.2 7.1-7.1 7.1h-49.6c-3.9 0-7.1-3.2-7.1-7.1z"/>
	<path class="s1" d="m5.4 5.4v53.2h53.2v-53.2zm26 39l-1.4-5.2h-6.9l-1.3 5.2h-5.4l7.8-25.2h4.7l7.9 25.2zm12.7 0h-4.9v-18.7h4.9zm-0.5-21.7q-0.7 0.7-2 0.7-1.2 0-1.9-0.7-0.7-0.8-0.7-1.9 0-1.1 0.7-1.8 0.7-0.8 1.9-0.8 1.2 0 2 0.8 0.7 0.7 0.7 1.8 0 1.1-0.7 1.9z"/>
	<path class="s1" d="m24.3 35h4.7l-2.4-9z"/>
</svg>